<svg width="1000" height="500" viewBox="0 0 1000 500"
    xmlns="http://www.w3.org/2000/svg">
    <g transform="scale(1) rotate(0) skewX(0) skewY(0)">
        <circle cx="44" cy="22" r="4.2" stroke="none" stroke-width="0" fill="#00BBA7d5" />
        <circle cx="176" cy="22" r="4.2" stroke="none" stroke-width="0" fill="#00BBA718" />
        <circle cx="264" cy="22" r="4.2" stroke="none" stroke-width="0" fill="#00BBA7c2" />
        <circle cx="308" cy="22" r="4.2" stroke="none" stroke-width="0" fill="#00BBA7d1" />
        <circle cx="352" cy="22" r="4.2" stroke="none" stroke-width="0" fill="#00BBA773" />
        <circle cx="484" cy="22" r="4.2" stroke="none" stroke-width="0" fill="#00BBA7eb" />
        <circle cx="528" cy="22" r="4.2" stroke="none" stroke-width="0" fill="#00BBA7b9" />
        <circle cx="616" cy="22" r="4.2" stroke="none" stroke-width="0" fill="#00BBA7df" />
        <circle cx="880" cy="22" r="4.2" stroke="none" stroke-width="0" fill="#00BBA701" />
        <circle cx="924" cy="22" r="4.2" stroke="none" stroke-width="0" fill="#00BBA785" />
        <circle cx="968" cy="22" r="4.2" stroke="none" stroke-width="0" fill="#00BBA7cf" />
        <circle cx="22" cy="66" r="4.2" stroke="none" stroke-width="0" fill="#00BBA77a" />
        <circle cx="66" cy="66" r="4.2" stroke="none" stroke-width="0" fill="#00BBA7b6" />
        <circle cx="242" cy="66" r="4.2" stroke="none" stroke-width="0" fill="#00BBA72d" />
        <circle cx="506" cy="66" r="4.2" stroke="none" stroke-width="0" fill="#00BBA7f5" />
        <circle cx="550" cy="66" r="4.2" stroke="none" stroke-width="0" fill="#00BBA7b4" />
        <circle cx="594" cy="66" r="4.2" stroke="none" stroke-width="0" fill="#00BBA7ea" />
        <circle cx="902" cy="66" r="4.2" stroke="none" stroke-width="0" fill="#00BBA7c6" />
        <circle cx="990" cy="66" r="4.2" stroke="none" stroke-width="0" fill="#00BBA786" />
        <circle cx="88" cy="110" r="4.2" stroke="none" stroke-width="0" fill="#00BBA71a" />
        <circle cx="176" cy="110" r="4.2" stroke="none" stroke-width="0" fill="#00BBA749" />
        <circle cx="220" cy="110" r="4.2" stroke="none" stroke-width="0" fill="#00BBA777" />
        <circle cx="264" cy="110" r="4.2" stroke="none" stroke-width="0" fill="#00BBA766" />
        <circle cx="308" cy="110" r="4.2" stroke="none" stroke-width="0" fill="#00BBA7f5" />
        <circle cx="352" cy="110" r="4.2" stroke="none" stroke-width="0" fill="#00BBA791" />
        <circle cx="396" cy="110" r="4.2" stroke="none" stroke-width="0" fill="#00BBA798" />
        <circle cx="616" cy="110" r="4.2" stroke="none" stroke-width="0" fill="#00BBA77e" />
        <circle cx="660" cy="110" r="4.2" stroke="none" stroke-width="0" fill="#00BBA7c9" />
        <circle cx="704" cy="110" r="4.2" stroke="none" stroke-width="0" fill="#00BBA743" />
        <circle cx="792" cy="110" r="4.2" stroke="none" stroke-width="0" fill="#00BBA72d" />
        <circle cx="836" cy="110" r="4.2" stroke="none" stroke-width="0" fill="#00BBA769" />
        <circle cx="880" cy="110" r="4.2" stroke="none" stroke-width="0" fill="#00BBA725" />
        <circle cx="154" cy="154" r="4.2" stroke="none" stroke-width="0" fill="#00BBA7fb" />
        <circle cx="198" cy="154" r="4.2" stroke="none" stroke-width="0" fill="#00BBA7d9" />
        <circle cx="242" cy="154" r="4.2" stroke="none" stroke-width="0" fill="#00BBA79f" />
        <circle cx="286" cy="154" r="4.2" stroke="none" stroke-width="0" fill="#00BBA77b" />
        <circle cx="330" cy="154" r="4.2" stroke="none" stroke-width="0" fill="#00BBA7e7" />
        <circle cx="374" cy="154" r="4.2" stroke="none" stroke-width="0" fill="#00BBA737" />
        <circle cx="418" cy="154" r="4.2" stroke="none" stroke-width="0" fill="#00BBA7ef" />
        <circle cx="462" cy="154" r="4.2" stroke="none" stroke-width="0" fill="#00BBA796" />
        <circle cx="594" cy="154" r="4.2" stroke="none" stroke-width="0" fill="#00BBA7f0" />
        <circle cx="638" cy="154" r="4.2" stroke="none" stroke-width="0" fill="#00BBA791" />
        <circle cx="726" cy="154" r="4.2" stroke="none" stroke-width="0" fill="#00BBA763" />
        <circle cx="814" cy="154" r="4.2" stroke="none" stroke-width="0" fill="#00BBA710" />
        <circle cx="902" cy="154" r="4.2" stroke="none" stroke-width="0" fill="#00BBA7c9" />
        <circle cx="946" cy="154" r="4.2" stroke="none" stroke-width="0" fill="#00BBA7c4" />
        <circle cx="44" cy="198" r="4.2" stroke="none" stroke-width="0" fill="#00BBA7c8" />
        <circle cx="176" cy="198" r="4.2" stroke="none" stroke-width="0" fill="#00BBA735" />
        <circle cx="220" cy="198" r="4.2" stroke="none" stroke-width="0" fill="#00BBA717" />
        <circle cx="264" cy="198" r="4.2" stroke="none" stroke-width="0" fill="#00BBA7f4" />
        <circle cx="440" cy="198" r="4.2" stroke="none" stroke-width="0" fill="#00BBA732" />
        <circle cx="484" cy="198" r="4.2" stroke="none" stroke-width="0" fill="#00BBA766" />
        <circle cx="660" cy="198" r="4.2" stroke="none" stroke-width="0" fill="#00BBA746" />
        <circle cx="704" cy="198" r="4.2" stroke="none" stroke-width="0" fill="#00BBA797" />
        <circle cx="836" cy="198" r="4.2" stroke="none" stroke-width="0" fill="#00BBA782" />
        <circle cx="968" cy="198" r="4.2" stroke="none" stroke-width="0" fill="#00BBA7f2" />
        <circle cx="22" cy="242" r="4.2" stroke="none" stroke-width="0" fill="#00BBA7e0" />
        <circle cx="110" cy="242" r="4.2" stroke="none" stroke-width="0" fill="#00BBA770" />
        <circle cx="154" cy="242" r="4.2" stroke="none" stroke-width="0" fill="#00BBA7f8" />
        <circle cx="242" cy="242" r="4.2" stroke="none" stroke-width="0" fill="#00BBA738" />
        <circle cx="374" cy="242" r="4.2" stroke="none" stroke-width="0" fill="#00BBA7b0" />
        <circle cx="506" cy="242" r="4.2" stroke="none" stroke-width="0" fill="#00BBA7ec" />
        <circle cx="814" cy="242" r="4.2" stroke="none" stroke-width="0" fill="#00BBA7ab" />
        <circle cx="902" cy="242" r="4.2" stroke="none" stroke-width="0" fill="#00BBA7d7" />
        <circle cx="990" cy="242" r="4.2" stroke="none" stroke-width="0" fill="#00BBA71b" />
        <circle cx="132" cy="286" r="4.2" stroke="none" stroke-width="0" fill="#00BBA716" />
        <circle cx="220" cy="286" r="4.2" stroke="none" stroke-width="0" fill="#00BBA7cd" />
        <circle cx="264" cy="286" r="4.2" stroke="none" stroke-width="0" fill="#00BBA79c" />
        <circle cx="308" cy="286" r="4.2" stroke="none" stroke-width="0" fill="#00BBA79f" />
        <circle cx="352" cy="286" r="4.2" stroke="none" stroke-width="0" fill="#00BBA755" />
        <circle cx="484" cy="286" r="4.2" stroke="none" stroke-width="0" fill="#00BBA78d" />
        <circle cx="836" cy="286" r="4.2" stroke="none" stroke-width="0" fill="#00BBA765" />
        <circle cx="880" cy="286" r="4.2" stroke="none" stroke-width="0" fill="#00BBA775" />
        <circle cx="22" cy="330" r="4.2" stroke="none" stroke-width="0" fill="#00BBA746" />
        <circle cx="66" cy="330" r="4.2" stroke="none" stroke-width="0" fill="#00BBA74f" />
        <circle cx="154" cy="330" r="4.2" stroke="none" stroke-width="0" fill="#00BBA71c" />
        <circle cx="198" cy="330" r="4.2" stroke="none" stroke-width="0" fill="#00BBA75a" />
        <circle cx="286" cy="330" r="4.2" stroke="none" stroke-width="0" fill="#00BBA7f8" />
        <circle cx="418" cy="330" r="4.2" stroke="none" stroke-width="0" fill="#00BBA7a3" />
        <circle cx="462" cy="330" r="4.2" stroke="none" stroke-width="0" fill="#00BBA7d2" />
        <circle cx="506" cy="330" r="4.2" stroke="none" stroke-width="0" fill="#00BBA78a" />
        <circle cx="550" cy="330" r="4.2" stroke="none" stroke-width="0" fill="#00BBA7e9" />
        <circle cx="638" cy="330" r="4.2" stroke="none" stroke-width="0" fill="#00BBA79a" />
        <circle cx="682" cy="330" r="4.2" stroke="none" stroke-width="0" fill="#00BBA726" />
        <circle cx="726" cy="330" r="4.2" stroke="none" stroke-width="0" fill="#00BBA72e" />
        <circle cx="770" cy="330" r="4.2" stroke="none" stroke-width="0" fill="#00BBA79b" />
        <circle cx="858" cy="330" r="4.2" stroke="none" stroke-width="0" fill="#00BBA7c9" />
        <circle cx="946" cy="330" r="4.2" stroke="none" stroke-width="0" fill="#00BBA707" />
        <circle cx="990" cy="330" r="4.2" stroke="none" stroke-width="0" fill="#00BBA7b8" />
        <circle cx="44" cy="374" r="4.2" stroke="none" stroke-width="0" fill="#00BBA77b" />
        <circle cx="88" cy="374" r="4.2" stroke="none" stroke-width="0" fill="#00BBA771" />
        <circle cx="176" cy="374" r="4.2" stroke="none" stroke-width="0" fill="#00BBA786" />
        <circle cx="352" cy="374" r="4.2" stroke="none" stroke-width="0" fill="#00BBA765" />
        <circle cx="396" cy="374" r="4.2" stroke="none" stroke-width="0" fill="#00BBA7e1" />
        <circle cx="440" cy="374" r="4.2" stroke="none" stroke-width="0" fill="#00BBA710" />
        <circle cx="528" cy="374" r="4.2" stroke="none" stroke-width="0" fill="#00BBA7e5" />
        <circle cx="572" cy="374" r="4.2" stroke="none" stroke-width="0" fill="#00BBA7d9" />
        <circle cx="616" cy="374" r="4.2" stroke="none" stroke-width="0" fill="#00BBA75c" />
        <circle cx="704" cy="374" r="4.2" stroke="none" stroke-width="0" fill="#00BBA769" />
        <circle cx="748" cy="374" r="4.2" stroke="none" stroke-width="0" fill="#00BBA702" />
        <circle cx="836" cy="374" r="4.2" stroke="none" stroke-width="0" fill="#00BBA7da" />
        <circle cx="880" cy="374" r="4.2" stroke="none" stroke-width="0" fill="#00BBA7eb" />
        <circle cx="924" cy="374" r="4.2" stroke="none" stroke-width="0" fill="#00BBA7c5" />
        <circle cx="968" cy="374" r="4.2" stroke="none" stroke-width="0" fill="#00BBA7b7" />
        <circle cx="198" cy="418" r="4.2" stroke="none" stroke-width="0" fill="#00BBA727" />
        <circle cx="242" cy="418" r="4.2" stroke="none" stroke-width="0" fill="#00BBA7be" />
        <circle cx="330" cy="418" r="4.2" stroke="none" stroke-width="0" fill="#00BBA779" />
        <circle cx="374" cy="418" r="4.2" stroke="none" stroke-width="0" fill="#00BBA7f1" />
        <circle cx="462" cy="418" r="4.2" stroke="none" stroke-width="0" fill="#00BBA7ea" />
        <circle cx="506" cy="418" r="4.2" stroke="none" stroke-width="0" fill="#00BBA713" />
        <circle cx="638" cy="418" r="4.2" stroke="none" stroke-width="0" fill="#00BBA7b4" />
        <circle cx="682" cy="418" r="4.2" stroke="none" stroke-width="0" fill="#00BBA797" />
        <circle cx="902" cy="418" r="4.2" stroke="none" stroke-width="0" fill="#00BBA737" />
        <circle cx="946" cy="418" r="4.2" stroke="none" stroke-width="0" fill="#00BBA722" />
        <circle cx="88" cy="462" r="4.2" stroke="none" stroke-width="0" fill="#00BBA720" />
        <circle cx="352" cy="462" r="4.2" stroke="none" stroke-width="0" fill="#00BBA776" />
        <circle cx="396" cy="462" r="4.2" stroke="none" stroke-width="0" fill="#00BBA775" />
        <circle cx="528" cy="462" r="4.2" stroke="none" stroke-width="0" fill="#00BBA771" />
        <circle cx="660" cy="462" r="4.2" stroke="none" stroke-width="0" fill="#00BBA7ad" />
        <circle cx="704" cy="462" r="4.2" stroke="none" stroke-width="0" fill="#00BBA781" />
        <circle cx="748" cy="462" r="4.2" stroke="none" stroke-width="0" fill="#00BBA7e9" />
    </g>
</svg>